<svg xmlns="http://www.w3.org/2000/svg" width="120" height="160" viewBox="0 0 120 160">
  <rect width="120" height="160" fill="#d8d8d8"/>
  <g fill="none" stroke="#a0a0a0" stroke-width="2">
    <!-- Hexagons - each is roughly 24 wide, 28 tall -->
    <!-- Row 1 -->
    <polygon points="12,-7 24,0 24,14 12,21 0,14 0,0"/>
    <polygon points="36,-7 48,0 48,14 36,21 24,14 24,0"/>
    <polygon points="60,-7 72,0 72,14 60,21 48,14 48,0"/>
    <polygon points="84,-7 96,0 96,14 84,21 72,14 72,0"/>
    <polygon points="108,-7 120,0 120,14 108,21 96,14 96,0"/>
    <!-- Row 2 (offset) -->
    <polygon points="0,14 12,21 12,35 0,42 -12,35 -12,21"/>
    <polygon points="24,14 36,21 36,35 24,42 12,35 12,21"/>
    <polygon points="48,14 60,21 60,35 48,42 36,35 36,21"/>
    <polygon points="72,14 84,21 84,35 72,42 60,35 60,21"/>
    <polygon points="96,14 108,21 108,35 96,42 84,35 84,21"/>
    <polygon points="120,14 132,21 132,35 120,42 108,35 108,21"/>
    <!-- Row 3 -->
    <polygon points="12,35 24,42 24,56 12,63 0,56 0,42"/>
    <polygon points="36,35 48,42 48,56 36,63 24,56 24,42"/>
    <polygon points="60,35 72,42 72,56 60,63 48,56 48,42"/>
    <polygon points="84,35 96,42 96,56 84,63 72,56 72,42"/>
    <polygon points="108,35 120,42 120,56 108,63 96,56 96,42"/>
    <!-- Row 4 (offset) -->
    <polygon points="0,56 12,63 12,77 0,84 -12,77 -12,63"/>
    <polygon points="24,56 36,63 36,77 24,84 12,77 12,63"/>
    <polygon points="48,56 60,63 60,77 48,84 36,77 36,63"/>
    <polygon points="72,56 84,63 84,77 72,84 60,77 60,63"/>
    <polygon points="96,56 108,63 108,77 96,84 84,77 84,63"/>
    <polygon points="120,56 132,63 132,77 120,84 108,77 108,63"/>
    <!-- Row 5 -->
    <polygon points="12,77 24,84 24,98 12,105 0,98 0,84"/>
    <polygon points="36,77 48,84 48,98 36,105 24,98 24,84"/>
    <polygon points="60,77 72,84 72,98 60,105 48,98 48,84"/>
    <polygon points="84,77 96,84 96,98 84,105 72,98 72,84"/>
    <polygon points="108,77 120,84 120,98 108,105 96,98 96,84"/>
    <!-- Row 6 (offset) -->
    <polygon points="0,98 12,105 12,119 0,126 -12,119 -12,105"/>
    <polygon points="24,98 36,105 36,119 24,126 12,119 12,105"/>
    <polygon points="48,98 60,105 60,119 48,126 36,119 36,105"/>
    <polygon points="72,98 84,105 84,119 72,126 60,119 60,105"/>
    <polygon points="96,98 108,105 108,119 96,126 84,119 84,105"/>
    <polygon points="120,98 132,105 132,119 120,126 108,119 108,105"/>
    <!-- Row 7 -->
    <polygon points="12,119 24,126 24,140 12,147 0,140 0,126"/>
    <polygon points="36,119 48,126 48,140 36,147 24,140 24,126"/>
    <polygon points="60,119 72,126 72,140 60,147 48,140 48,126"/>
    <polygon points="84,119 96,126 96,140 84,147 72,140 72,126"/>
    <polygon points="108,119 120,126 120,140 108,147 96,140 96,126"/>
    <!-- Row 8 (offset) -->
    <polygon points="0,140 12,147 12,161 0,168 -12,161 -12,147"/>
    <polygon points="24,140 36,147 36,161 24,168 12,161 12,147"/>
    <polygon points="48,140 60,147 60,161 48,168 36,161 36,147"/>
    <polygon points="72,140 84,147 84,161 72,168 60,161 60,147"/>
    <polygon points="96,140 108,147 108,161 96,168 84,161 84,147"/>
    <polygon points="120,140 132,147 132,161 120,168 108,161 108,147"/>
  </g>
</svg>
