<svg xmlns="http://www.w3.org/2000/svg" width="120" height="160" viewBox="0 0 120 160">
  <rect width="120" height="160" fill="#d0d0d0"/>
  <g fill="none" stroke="#909090" stroke-width="1.5">
    <!-- Row 1 -->
    <path d="M 0,10 Q 10,0 20,10 Q 30,20 40,10 Q 50,0 60,10 Q 70,20 80,10 Q 90,0 100,10 Q 110,20 120,10"/>
    <path d="M -10,10 Q 0,20 10,10"/>
    <path d="M 110,10 Q 120,20 130,10"/>
    <!-- Row 2 -->
    <path d="M -10,20 Q 0,10 10,20 Q 20,30 30,20 Q 40,10 50,20 Q 60,30 70,20 Q 80,10 90,20 Q 100,30 110,20 Q 120,10 130,20"/>
    <!-- Row 3 -->
    <path d="M 0,30 Q 10,20 20,30 Q 30,40 40,30 Q 50,20 60,30 Q 70,40 80,30 Q 90,20 100,30 Q 110,40 120,30"/>
    <!-- Row 4 -->
    <path d="M -10,40 Q 0,30 10,40 Q 20,50 30,40 Q 40,30 50,40 Q 60,50 70,40 Q 80,30 90,40 Q 100,50 110,40 Q 120,30 130,40"/>
    <!-- Row 5 -->
    <path d="M 0,50 Q 10,40 20,50 Q 30,60 40,50 Q 50,40 60,50 Q 70,60 80,50 Q 90,40 100,50 Q 110,60 120,50"/>
    <!-- Row 6 -->
    <path d="M -10,60 Q 0,50 10,60 Q 20,70 30,60 Q 40,50 50,60 Q 60,70 70,60 Q 80,50 90,60 Q 100,70 110,60 Q 120,50 130,60"/>
    <!-- Row 7 -->
    <path d="M 0,70 Q 10,60 20,70 Q 30,80 40,70 Q 50,60 60,70 Q 70,80 80,70 Q 90,60 100,70 Q 110,80 120,70"/>
    <!-- Row 8 -->
    <path d="M -10,80 Q 0,70 10,80 Q 20,90 30,80 Q 40,70 50,80 Q 60,90 70,80 Q 80,70 90,80 Q 100,90 110,80 Q 120,70 130,80"/>
    <!-- Row 9 -->
    <path d="M 0,90 Q 10,80 20,90 Q 30,100 40,90 Q 50,80 60,90 Q 70,100 80,90 Q 90,80 100,90 Q 110,100 120,90"/>
    <!-- Row 10 -->
    <path d="M -10,100 Q 0,90 10,100 Q 20,110 30,100 Q 40,90 50,100 Q 60,110 70,100 Q 80,90 90,100 Q 100,110 110,100 Q 120,90 130,100"/>
    <!-- Row 11 -->
    <path d="M 0,110 Q 10,100 20,110 Q 30,120 40,110 Q 50,100 60,110 Q 70,120 80,110 Q 90,100 100,110 Q 110,120 120,110"/>
    <!-- Row 12 -->
    <path d="M -10,120 Q 0,110 10,120 Q 20,130 30,120 Q 40,110 50,120 Q 60,130 70,120 Q 80,110 90,120 Q 100,130 110,120 Q 120,110 130,120"/>
    <!-- Row 13 -->
    <path d="M 0,130 Q 10,120 20,130 Q 30,140 40,130 Q 50,120 60,130 Q 70,140 80,130 Q 90,120 100,130 Q 110,140 120,130"/>
    <!-- Row 14 -->
    <path d="M -10,140 Q 0,130 10,140 Q 20,150 30,140 Q 40,130 50,140 Q 60,150 70,140 Q 80,130 90,140 Q 100,150 110,140 Q 120,130 130,140"/>
    <!-- Row 15 -->
    <path d="M 0,150 Q 10,140 20,150 Q 30,160 40,150 Q 50,140 60,150 Q 70,160 80,150 Q 90,140 100,150 Q 110,160 120,150"/>
    <!-- Row 16 -->
    <path d="M -10,160 Q 0,150 10,160 Q 20,170 30,160 Q 40,150 50,160 Q 60,170 70,160 Q 80,150 90,160 Q 100,170 110,160 Q 120,150 130,160"/>
  </g>
</svg>
