<svg xmlns="http://www.w3.org/2000/svg" width="120" height="160" viewBox="0 0 120 160">
  <rect width="120" height="160" fill="#e0e0e0"/>
  <g fill="none" stroke="#b8b8b8" stroke-width="1.5">
    <!-- Row 1 -->
    <polygon points="20,0 40,20 20,40 0,20"/>
    <polygon points="60,0 80,20 60,40 40,20"/>
    <polygon points="100,0 120,20 100,40 80,20"/>
    <!-- Row 2 -->
    <polygon points="0,20 20,40 0,60 -20,40"/>
    <polygon points="40,20 60,40 40,60 20,40"/>
    <polygon points="80,20 100,40 80,60 60,40"/>
    <polygon points="120,20 140,40 120,60 100,40"/>
    <!-- Row 3 -->
    <polygon points="20,40 40,60 20,80 0,60"/>
    <polygon points="60,40 80,60 60,80 40,60"/>
    <polygon points="100,40 120,60 100,80 80,60"/>
    <!-- Row 4 -->
    <polygon points="0,60 20,80 0,100 -20,80"/>
    <polygon points="40,60 60,80 40,100 20,80"/>
    <polygon points="80,60 100,80 80,100 60,80"/>
    <polygon points="120,60 140,80 120,100 100,80"/>
    <!-- Row 5 -->
    <polygon points="20,80 40,100 20,120 0,100"/>
    <polygon points="60,80 80,100 60,120 40,100"/>
    <polygon points="100,80 120,100 100,120 80,100"/>
    <!-- Row 6 -->
    <polygon points="0,100 20,120 0,140 -20,120"/>
    <polygon points="40,100 60,120 40,140 20,120"/>
    <polygon points="80,100 100,120 80,140 60,120"/>
    <polygon points="120,100 140,120 120,140 100,120"/>
    <!-- Row 7 -->
    <polygon points="20,120 40,140 20,160 0,140"/>
    <polygon points="60,120 80,140 60,160 40,140"/>
    <polygon points="100,120 120,140 100,160 80,140"/>
    <!-- Row 8 -->
    <polygon points="0,140 20,160 0,180 -20,160"/>
    <polygon points="40,140 60,160 40,180 20,160"/>
    <polygon points="80,140 100,160 80,180 60,160"/>
    <polygon points="120,140 140,160 120,180 100,160"/>
  </g>
</svg>
