<svg xmlns="http://www.w3.org/2000/svg" width="120" height="160" viewBox="0 0 120 160">
  <rect width="120" height="160" fill="#f0f0f0"/>
  <g fill="#d8d8d8">
    <rect y="0" width="120" height="4"/>
    <rect y="8" width="120" height="4"/>
    <rect y="16" width="120" height="4"/>
    <rect y="24" width="120" height="4"/>
    <rect y="32" width="120" height="4"/>
    <rect y="40" width="120" height="4"/>
    <rect y="48" width="120" height="4"/>
    <rect y="56" width="120" height="4"/>
    <rect y="64" width="120" height="4"/>
    <rect y="72" width="120" height="4"/>
    <rect y="80" width="120" height="4"/>
    <rect y="88" width="120" height="4"/>
    <rect y="96" width="120" height="4"/>
    <rect y="104" width="120" height="4"/>
    <rect y="112" width="120" height="4"/>
    <rect y="120" width="120" height="4"/>
    <rect y="128" width="120" height="4"/>
    <rect y="136" width="120" height="4"/>
    <rect y="144" width="120" height="4"/>
    <rect y="152" width="120" height="4"/>
  </g>
</svg>
